<?xml version="1.0" encoding="UTF-8" standalone="no"?><!DOCTYPE svg PUBLIC "-//W3C//DTD SVG 1.1//EN" "http://www.w3.org/Graphics/SVG/1.1/DTD/svg11.dtd"><svg width="100%" height="100%" viewBox="0 0 1000 1000" version="1.1" xmlns="http://www.w3.org/2000/svg" xmlns:xlink="http://www.w3.org/1999/xlink" xml:space="preserve" xmlns:serif="http://www.serif.com/" style="fill-rule:evenodd;clip-rule:evenodd;stroke-linejoin:round;stroke-miterlimit:2;"><path d="M960,153.501c0,-62.643 -50.858,-113.501 -113.501,-113.501l-692.998,0c-62.643,0 -113.501,50.858 -113.501,113.501l0,692.998c0,62.643 50.858,113.501 113.501,113.501l692.998,0c62.643,0 113.501,-50.858 113.501,-113.501l0,-692.998Z" style="fill:rgb(34,38,49);"/><path d="M480.591,642.937c-0,30.739 -5.311,59.428 -15.047,85.044c-9.736,25.616 -23.897,48.158 -40.714,67.626c-17.702,19.468 -38.059,34.837 -61.072,46.108c-23.012,11.271 -47.795,16.394 -73.463,16.394c-25.667,0 -50.45,-5.123 -73.462,-16.394c-23.898,-11.271 -44.255,-26.64 -61.072,-46.108c-16.817,-19.468 -30.978,-42.01 -40.714,-68.651c-9.736,-25.615 -15.047,-54.305 -15.047,-85.044l-0,-65.576l124.798,-0l0,27.665c0,14.345 0.886,27.665 3.541,39.96c1.77,12.296 5.31,23.567 10.621,32.788c4.425,9.222 11.506,17.419 21.242,22.542c8.851,5.124 20.357,8.197 34.519,8.197c15.047,0 29.208,-6.147 40.714,-19.468c10.621,-13.32 16.817,-28.689 16.817,-46.108l0,-351.448l-48.68,-0l-0,-148.571l177.019,-0l-0,501.044Z" style="fill:rgb(69,93,220);fill-rule:nonzero;"/><path d="M520,200c265.768,12.148 380,300 380,300c0,-0 -114.232,287.852 -380,300l0,-85.919c164.291,-9.25 256.463,-148.425 290.99,-214.081c-34.527,-65.656 -126.699,-204.831 -290.99,-214.081l0,-85.919Zm0,172.618c57.579,9.084 101.843,62.685 101.843,127.382c0,64.697 -44.264,118.298 -101.843,127.382l0,-88.778c13.239,-6.962 22.37,-21.638 22.37,-38.604c-0,-16.966 -9.131,-31.642 -22.37,-38.604l0,-88.778Z" style="fill:rgb(69,93,220);"/></svg>